%TF.GenerationSoftware,KiCad,Pcbnew,10.0.4*%
%TF.CreationDate,2026-09-07T20:55:25-07:00*%
%TF.ProjectId,LED_Torch,4c45445f-546f-4726-9368-2e6b69636164,rev?*%
%TF.SameCoordinates,Original*%
%TF.FileFunction,Legend,Top*%
%TF.FilePolarity,Positive*%
%FSLAX46Y46*%
G04 Gerber Fmt 4.6, Leading zero omitted, Abs format (unit mm)*
G04 Created by KiCad (PCBNEW 10.0.4) date 2026-09-07 20:55:25*
%MOMM*%
%LPD*%
G01*
G04 APERTURE LIST*
%ADD10C,0.100000*%
%ADD11C,0.150000*%
%ADD12C,0.120000*%
G04 APERTURE END LIST*
D10*
X117303884Y-116241466D02*
X118065789Y-116241466D01*
X117303884Y-123741466D02*
X118065789Y-123741466D01*
X117684836Y-124122419D02*
X117684836Y-123360514D01*
D11*
X136666667Y-116107200D02*
X136809524Y-116154819D01*
X136809524Y-116154819D02*
X137047619Y-116154819D01*
X137047619Y-116154819D02*
X137142857Y-116107200D01*
X137142857Y-116107200D02*
X137190476Y-116059580D01*
X137190476Y-116059580D02*
X137238095Y-115964342D01*
X137238095Y-115964342D02*
X137238095Y-115869104D01*
X137238095Y-115869104D02*
X137190476Y-115773866D01*
X137190476Y-115773866D02*
X137142857Y-115726247D01*
X137142857Y-115726247D02*
X137047619Y-115678628D01*
X137047619Y-115678628D02*
X136857143Y-115631009D01*
X136857143Y-115631009D02*
X136761905Y-115583390D01*
X136761905Y-115583390D02*
X136714286Y-115535771D01*
X136714286Y-115535771D02*
X136666667Y-115440533D01*
X136666667Y-115440533D02*
X136666667Y-115345295D01*
X136666667Y-115345295D02*
X136714286Y-115250057D01*
X136714286Y-115250057D02*
X136761905Y-115202438D01*
X136761905Y-115202438D02*
X136857143Y-115154819D01*
X136857143Y-115154819D02*
X137095238Y-115154819D01*
X137095238Y-115154819D02*
X137238095Y-115202438D01*
X137571429Y-115154819D02*
X137809524Y-116154819D01*
X137809524Y-116154819D02*
X138000000Y-115440533D01*
X138000000Y-115440533D02*
X138190476Y-116154819D01*
X138190476Y-116154819D02*
X138428572Y-115154819D01*
X139333333Y-116154819D02*
X138761905Y-116154819D01*
X139047619Y-116154819D02*
X139047619Y-115154819D01*
X139047619Y-115154819D02*
X138952381Y-115297676D01*
X138952381Y-115297676D02*
X138857143Y-115392914D01*
X138857143Y-115392914D02*
X138761905Y-115440533D01*
X128534819Y-120166666D02*
X128058628Y-120499999D01*
X128534819Y-120738094D02*
X127534819Y-120738094D01*
X127534819Y-120738094D02*
X127534819Y-120357142D01*
X127534819Y-120357142D02*
X127582438Y-120261904D01*
X127582438Y-120261904D02*
X127630057Y-120214285D01*
X127630057Y-120214285D02*
X127725295Y-120166666D01*
X127725295Y-120166666D02*
X127868152Y-120166666D01*
X127868152Y-120166666D02*
X127963390Y-120214285D01*
X127963390Y-120214285D02*
X128011009Y-120261904D01*
X128011009Y-120261904D02*
X128058628Y-120357142D01*
X128058628Y-120357142D02*
X128058628Y-120738094D01*
X128534819Y-119214285D02*
X128534819Y-119785713D01*
X128534819Y-119499999D02*
X127534819Y-119499999D01*
X127534819Y-119499999D02*
X127677676Y-119595237D01*
X127677676Y-119595237D02*
X127772914Y-119690475D01*
X127772914Y-119690475D02*
X127820533Y-119785713D01*
X116704819Y-124738094D02*
X115704819Y-124738094D01*
X115704819Y-124738094D02*
X115704819Y-124499999D01*
X115704819Y-124499999D02*
X115752438Y-124357142D01*
X115752438Y-124357142D02*
X115847676Y-124261904D01*
X115847676Y-124261904D02*
X115942914Y-124214285D01*
X115942914Y-124214285D02*
X116133390Y-124166666D01*
X116133390Y-124166666D02*
X116276247Y-124166666D01*
X116276247Y-124166666D02*
X116466723Y-124214285D01*
X116466723Y-124214285D02*
X116561961Y-124261904D01*
X116561961Y-124261904D02*
X116657200Y-124357142D01*
X116657200Y-124357142D02*
X116704819Y-124499999D01*
X116704819Y-124499999D02*
X116704819Y-124738094D01*
X116704819Y-123214285D02*
X116704819Y-123785713D01*
X116704819Y-123499999D02*
X115704819Y-123499999D01*
X115704819Y-123499999D02*
X115847676Y-123595237D01*
X115847676Y-123595237D02*
X115942914Y-123690475D01*
X115942914Y-123690475D02*
X115990533Y-123785713D01*
X161214285Y-127551009D02*
X161357142Y-127598628D01*
X161357142Y-127598628D02*
X161404761Y-127646247D01*
X161404761Y-127646247D02*
X161452380Y-127741485D01*
X161452380Y-127741485D02*
X161452380Y-127884342D01*
X161452380Y-127884342D02*
X161404761Y-127979580D01*
X161404761Y-127979580D02*
X161357142Y-128027200D01*
X161357142Y-128027200D02*
X161261904Y-128074819D01*
X161261904Y-128074819D02*
X160880952Y-128074819D01*
X160880952Y-128074819D02*
X160880952Y-127074819D01*
X160880952Y-127074819D02*
X161214285Y-127074819D01*
X161214285Y-127074819D02*
X161309523Y-127122438D01*
X161309523Y-127122438D02*
X161357142Y-127170057D01*
X161357142Y-127170057D02*
X161404761Y-127265295D01*
X161404761Y-127265295D02*
X161404761Y-127360533D01*
X161404761Y-127360533D02*
X161357142Y-127455771D01*
X161357142Y-127455771D02*
X161309523Y-127503390D01*
X161309523Y-127503390D02*
X161214285Y-127551009D01*
X161214285Y-127551009D02*
X160880952Y-127551009D01*
X161738095Y-127074819D02*
X162309523Y-127074819D01*
X162023809Y-128074819D02*
X162023809Y-127074819D01*
X163166666Y-128074819D02*
X162595238Y-128074819D01*
X162880952Y-128074819D02*
X162880952Y-127074819D01*
X162880952Y-127074819D02*
X162785714Y-127217676D01*
X162785714Y-127217676D02*
X162690476Y-127312914D01*
X162690476Y-127312914D02*
X162595238Y-127360533D01*
%TO.C,SW1*%
D12*
X132900000Y-116700000D02*
X133900000Y-116700000D01*
X132900000Y-117700000D02*
X132900000Y-116700000D01*
X134900000Y-118700000D02*
X134900000Y-121300000D01*
X140900000Y-116750000D02*
X135100000Y-116750000D01*
X141000000Y-123250000D02*
X135000000Y-123250000D01*
X141100000Y-118700000D02*
X141100000Y-121300000D01*
%TO.C,R1*%
X130000000Y-122870000D02*
X130000000Y-121920000D01*
X130000000Y-117130000D02*
X130000000Y-118080000D01*
X129080000Y-118080000D02*
X130920000Y-118080000D01*
X130920000Y-121920000D01*
X129080000Y-121920000D01*
X129080000Y-118080000D01*
%TO.C,D1*%
X119295000Y-117435000D02*
X116205000Y-117435000D01*
X119294830Y-117435000D02*
G75*
G02*
X117750000Y-122985000I-1544830J-2560000D01*
G01*
X117750000Y-122985000D02*
G75*
G02*
X116205170Y-117435000I0J2990000D01*
G01*
X120250000Y-119995000D02*
G75*
G02*
X115250000Y-119995000I-2500000J0D01*
G01*
X115250000Y-119995000D02*
G75*
G02*
X120250000Y-119995000I2500000J0D01*
G01*
%TO.C,BT1*%
X147690000Y-116390000D02*
X151308000Y-116390000D01*
X147690000Y-118100000D02*
X147690000Y-116390000D01*
X147690000Y-121900000D02*
X147690000Y-123610000D01*
X151308000Y-123610000D02*
X147690000Y-123610000D01*
X154152700Y-111890000D02*
X169847300Y-111890000D01*
X158140000Y-128110000D02*
X154152700Y-128110000D01*
X160340000Y-125910000D02*
X158140000Y-128110000D01*
X163660000Y-125910000D02*
X160340000Y-125910000D01*
X163660000Y-125910000D02*
X165860000Y-128110000D01*
X169847300Y-128110000D02*
X165860000Y-128110000D01*
X172692000Y-116390000D02*
X176310000Y-116390000D01*
X176310000Y-118100000D02*
X176310000Y-116390000D01*
X176310000Y-121900000D02*
X176310000Y-123610000D01*
X176310000Y-123610000D02*
X172692000Y-123610000D01*
X151308000Y-116390000D02*
G75*
G02*
X154154628Y-111888210I10692020J-3610010D01*
G01*
X154154629Y-128111789D02*
G75*
G02*
X151308000Y-123610000I7845366J8111785D01*
G01*
X169845371Y-111888211D02*
G75*
G02*
X172692000Y-116390000I-7845371J-8111789D01*
G01*
X172692000Y-123610000D02*
G75*
G02*
X169845371Y-128111789I-10692020J3610012D01*
G01*
%TD*%
M02*
